<svg width="24" height="24" viewBox="0 0 24 24" fill="none" xmlns="http://www.w3.org/2000/svg">
<path d="M15.9104 9.63521L12.1515 7.46505C12.0575 7.41074 11.9416 7.41074 11.8475 7.46505L8.08858 9.63521C7.99458 9.68952 7.93652 9.78987 7.93652 9.89853V14.2388C7.93652 14.3474 7.99458 14.4478 8.08858 14.5023L11.8475 16.6724C11.9416 16.7267 12.0575 16.7267 12.1515 16.6724L15.9104 14.5023C16.0045 14.4479 16.0624 14.3475 16.0624 14.2388V9.89853C16.0623 9.78987 16.0044 9.68952 15.9104 9.63521Z" fill="#8080F2"/>
<path d="M2.22689 11.6117L6.71798 3.7985C6.88113 3.516 7.18249 3.30762 7.50869 3.30762H16.491C16.8173 3.30762 17.1187 3.516 17.2819 3.7985L21.773 11.5945C21.9361 11.8771 21.9361 12.2337 21.773 12.5163L17.2819 20.2654C17.1187 20.5479 16.8173 20.6924 16.491 20.6924H7.50875C7.18255 20.6924 6.88113 20.5523 6.71807 20.2697L2.22697 12.5079C2.06368 12.2255 2.06368 11.8942 2.22689 11.6117ZM5.94577 15.3688C5.94577 15.4837 6.01492 15.59 6.11449 15.6475L11.8352 18.948C11.9346 19.0054 12.0593 19.0054 12.1588 18.948L17.8839 15.6475C17.9834 15.59 18.053 15.4838 18.053 15.3688V8.76766C18.053 8.65274 17.9844 8.54658 17.8848 8.48906L12.1644 5.18851C12.0649 5.131 11.9404 5.131 11.8409 5.18851L6.11542 8.48906C6.01585 8.54658 5.94577 8.65274 5.94577 8.76766V15.3688Z" fill="#4B32C3"/>
</svg>
