<svg width="164" height="40" viewBox="0 0 164 40" fill="none" xmlns="http://www.w3.org/2000/svg">
<path d="M55.5662 28V15.0172H50.332V12H64.5857V15.0172H59.3516V28H55.5662Z" fill="#2B2B2B"/>
<path d="M71.3265 28.1829C69.8933 28.1829 68.6315 27.9086 67.5411 27.36C66.4662 26.8115 65.6328 26.0648 65.0408 25.12C64.4489 24.16 64.1529 23.0705 64.1529 21.8515C64.1529 20.6172 64.4411 19.5277 65.0175 18.5829C65.6094 17.6229 66.4117 16.8762 67.4242 16.3429C68.4368 15.7943 69.5818 15.52 70.8591 15.52C72.0898 15.52 73.1958 15.7791 74.1772 16.2972C75.1742 16.8 75.9609 17.5315 76.5372 18.4915C77.1136 19.4362 77.4018 20.5715 77.4018 21.8972C77.4018 22.0343 77.394 22.1943 77.3784 22.3772C77.3629 22.5448 77.3473 22.7048 77.3317 22.8572H67.1205V20.7772H75.4156L74.0136 21.3943C74.0136 20.7543 73.8812 20.1981 73.6164 19.7258C73.3516 19.2534 72.9855 18.8877 72.5182 18.6286C72.0508 18.3543 71.5056 18.2172 70.8825 18.2172C70.2594 18.2172 69.7064 18.3543 69.2235 18.6286C68.7561 18.8877 68.3901 19.261 68.1252 19.7486C67.8604 20.221 67.728 20.7848 67.728 21.44V21.9886C67.728 22.6591 67.876 23.2534 68.172 23.7715C68.4835 24.2743 68.9119 24.6629 69.4571 24.9372C70.0179 25.1962 70.6722 25.3258 71.4199 25.3258C72.0898 25.3258 72.6739 25.2267 73.1724 25.0286C73.6865 24.8305 74.1538 24.5334 74.5744 24.1372L76.5139 26.1943C75.9375 26.8343 75.2131 27.3296 74.3408 27.68C73.4684 28.0153 72.4636 28.1829 71.3265 28.1829Z" fill="#2B2B2B"/>
<path d="M95.9283 15.52C96.9253 15.52 97.8054 15.7181 98.5688 16.1143C99.3477 16.4953 99.9552 17.0896 100.391 17.8972C100.843 18.6896 101.069 19.7105 101.069 20.96V28H97.4238V21.5086C97.4238 20.5181 97.2135 19.7867 96.7929 19.3143C96.3723 18.8419 95.7803 18.6058 95.017 18.6058C94.4874 18.6058 94.0123 18.7277 93.5917 18.9715C93.171 19.2 92.8439 19.5505 92.6102 20.0229C92.3766 20.4953 92.2597 21.0972 92.2597 21.8286V28H88.6145V21.5086C88.6145 20.5181 88.4042 19.7867 87.9836 19.3143C87.5786 18.8419 86.9945 18.6058 86.2311 18.6058C85.7015 18.6058 85.2264 18.7277 84.8058 18.9715C84.3852 19.2 84.058 19.5505 83.8244 20.0229C83.5907 20.4953 83.4739 21.0972 83.4739 21.8286V28H79.8287V15.7029H83.3103V19.0629L82.656 18.08C83.0922 17.2419 83.7075 16.6096 84.502 16.1829C85.312 15.741 86.2311 15.52 87.2593 15.52C88.412 15.52 89.4168 15.8096 90.2736 16.3886C91.1459 16.9524 91.7223 17.821 92.0027 18.9943L90.7175 18.6515C91.1381 17.6915 91.808 16.9296 92.7271 16.3658C93.6618 15.8019 94.7288 15.52 95.9283 15.52Z" fill="#2B2B2B"/>
<path d="M111.767 28.1829C110.708 28.1829 109.781 27.9543 108.986 27.4972C108.192 27.04 107.569 26.3467 107.117 25.4172C106.681 24.4724 106.463 23.2838 106.463 21.8515C106.463 20.4038 106.673 19.2153 107.094 18.2858C107.514 17.3562 108.122 16.6629 108.916 16.2058C109.711 15.7486 110.661 15.52 111.767 15.52C112.951 15.52 114.01 15.7867 114.945 16.32C115.895 16.8381 116.643 17.5696 117.188 18.5143C117.749 19.4591 118.029 20.5715 118.029 21.8515C118.029 23.1467 117.749 24.2667 117.188 25.2115C116.643 26.1562 115.895 26.8877 114.945 27.4058C114.01 27.9238 112.951 28.1829 111.767 28.1829ZM104.336 32.4343V15.7029H107.818V18.2172L107.748 21.8743L107.982 25.5086V32.4343H104.336ZM111.136 25.2572C111.744 25.2572 112.281 25.12 112.748 24.8458C113.231 24.5715 113.613 24.1829 113.893 23.68C114.189 23.1619 114.337 22.5524 114.337 21.8515C114.337 21.1353 114.189 20.5258 113.893 20.0229C113.613 19.52 113.231 19.1315 112.748 18.8572C112.281 18.5829 111.744 18.4458 111.136 18.4458C110.528 18.4458 109.983 18.5829 109.5 18.8572C109.017 19.1315 108.636 19.52 108.355 20.0229C108.075 20.5258 107.935 21.1353 107.935 21.8515C107.935 22.5524 108.075 23.1619 108.355 23.68C108.636 24.1829 109.017 24.5715 109.5 24.8458C109.983 25.12 110.528 25.2572 111.136 25.2572Z" fill="#2B2B2B"/>
<path d="M120.469 28V11.04H124.115V28H120.469Z" fill="#2B2B2B"/>
<path d="M135.209 28V25.6L134.975 25.0743V20.7772C134.975 20.0153 134.734 19.421 134.251 18.9943C133.783 18.5677 133.059 18.3543 132.078 18.3543C131.408 18.3543 130.746 18.461 130.091 18.6743C129.453 18.8724 128.907 19.1467 128.456 19.4972L127.147 17.0058C127.833 16.5334 128.658 16.1677 129.624 15.9086C130.59 15.6496 131.571 15.52 132.568 15.52C134.484 15.52 135.972 15.9619 137.031 16.8458C138.091 17.7296 138.62 19.1086 138.62 20.9829V28H135.209ZM131.377 28.1829C130.395 28.1829 129.554 28.0229 128.853 27.7029C128.152 27.3677 127.614 26.9181 127.241 26.3543C126.867 25.7905 126.68 25.1581 126.68 24.4572C126.68 23.7258 126.859 23.0858 127.217 22.5372C127.591 21.9886 128.175 21.5619 128.97 21.2572C129.764 20.9372 130.8 20.7772 132.078 20.7772H135.419V22.8572H132.475C131.618 22.8572 131.026 22.9943 130.699 23.2686C130.387 23.5429 130.232 23.8858 130.232 24.2972C130.232 24.7543 130.411 25.12 130.769 25.3943C131.143 25.6534 131.649 25.7829 132.288 25.7829C132.895 25.7829 133.441 25.6458 133.923 25.3715C134.406 25.0819 134.757 24.6629 134.975 24.1143L135.536 25.76C135.271 26.5524 134.788 27.1543 134.087 27.5658C133.386 27.9772 132.483 28.1829 131.377 28.1829Z" fill="#2B2B2B"/>
<path d="M147.06 28.1829C145.58 28.1829 144.427 27.8172 143.602 27.0858C142.776 26.3391 142.363 25.2343 142.363 23.7715V12.9829H146.008V23.7258C146.008 24.2438 146.149 24.6477 146.429 24.9372C146.709 25.2115 147.091 25.3486 147.574 25.3486C148.15 25.3486 148.641 25.1962 149.046 24.8915L150.028 27.4058C149.654 27.6648 149.202 27.8629 148.672 28C148.158 28.1219 147.621 28.1829 147.06 28.1829ZM140.424 18.72V15.9772H149.14V18.72H140.424Z" fill="#2B2B2B"/>
<path d="M157.925 28.1829C156.492 28.1829 155.23 27.9086 154.139 27.36C153.064 26.8115 152.231 26.0648 151.639 25.12C151.047 24.16 150.751 23.0705 150.751 21.8515C150.751 20.6172 151.039 19.5277 151.616 18.5829C152.208 17.6229 153.01 16.8762 154.023 16.3429C155.035 15.7943 156.18 15.52 157.457 15.52C158.688 15.52 159.794 15.7791 160.775 16.2972C161.772 16.8 162.559 17.5315 163.136 18.4915C163.712 19.4362 164 20.5715 164 21.8972C164 22.0343 163.992 22.1943 163.977 22.3772C163.961 22.5448 163.946 22.7048 163.93 22.8572H153.719V20.7772H162.014L160.612 21.3943C160.612 20.7543 160.48 20.1981 160.215 19.7258C159.95 19.2534 159.584 18.8877 159.116 18.6286C158.649 18.3543 158.104 18.2172 157.481 18.2172C156.858 18.2172 156.305 18.3543 155.822 18.6286C155.354 18.8877 154.988 19.261 154.724 19.7486C154.459 20.221 154.326 20.7848 154.326 21.44V21.9886C154.326 22.6591 154.474 23.2534 154.77 23.7715C155.082 24.2743 155.51 24.6629 156.055 24.9372C156.616 25.1962 157.27 25.3258 158.018 25.3258C158.688 25.3258 159.272 25.2267 159.771 25.0286C160.285 24.8305 160.752 24.5334 161.173 24.1372L163.112 26.1943C162.536 26.8343 161.811 27.3296 160.939 27.68C160.067 28.0153 159.062 28.1829 157.925 28.1829Z" fill="#2B2B2B"/>
<path fill-rule="evenodd" clip-rule="evenodd" d="M20.4459 38C30.6086 38 38.8471 29.9411 38.8471 20C38.8471 10.0589 30.6086 2 20.4459 2C10.2831 2 2.04459 10.0589 2.04459 20C2.04459 29.9411 10.2831 38 20.4459 38ZM20.4459 40C31.7378 40 40.8917 31.0457 40.8917 20C40.8917 8.95431 31.7378 0 20.4459 0C9.15393 0 0 8.95431 0 20C0 31.0457 9.15393 40 20.4459 40Z" fill="#2B2B2B"/>
<path d="M20.4461 30C22.468 30 24.4445 29.4135 26.1256 28.3147C27.8068 27.2159 29.1171 25.6541 29.8908 23.8268C30.6646 21.9996 30.867 19.9889 30.4726 18.0491C30.0781 16.1093 29.1045 14.3275 27.6748 12.9289C26.2451 11.5304 24.4235 10.578 22.4405 10.1922C20.4574 9.8063 18.4019 10.0043 16.5339 10.7612C14.6659 11.5181 13.0693 12.7998 11.946 14.4443C10.8227 16.0888 10.2231 18.0222 10.2231 20L20.4461 20L20.4461 30Z" fill="#2B2B2B"/>
</svg>
