<svg width="24" height="24" viewBox="0 0 24 24" fill="none" xmlns="http://www.w3.org/2000/svg">
<path d="M12.1291 21.5696C14.2023 14.1571 14.1421 14.1234 15.6405 8.83821L16.0007 9.04672C16.1969 9.15903 16.3571 9.06663 16.3571 8.84106V6.31999C16.7551 4.92772 17.066 3.85105 17.1579 3.52881H18.781L21.4779 6.02618L19.7065 7.55683L21.0461 9.00549L12.2181 21.5696C12.1755 21.6407 12.1153 21.6246 12.1291 21.5696ZM13.0934 5.5921C13.174 5.5921 13.2384 5.63617 13.2384 5.69162V6.98295C13.2384 7.03698 13.1735 7.08105 13.0934 7.08105H10.9135C10.833 7.08105 10.7681 7.03698 10.7681 6.98248V5.69067C10.7681 5.63617 10.833 5.59115 10.9131 5.59115H13.0929L13.0934 5.5921ZM15.7851 4.16192L13.3863 5.54661C13.4138 5.58926 13.4308 5.63807 13.4308 5.69114V6.98343C13.4308 7.04977 13.4043 7.11043 13.3616 7.15877L15.7846 8.55767C15.9495 8.6534 16.085 8.57521 16.085 8.38471V4.33536C16.085 4.14438 15.9505 4.06667 15.7851 4.16192ZM10.5752 6.98343V5.69067C10.5752 5.6376 10.5922 5.58879 10.6197 5.54661L8.22093 4.16097C8.05601 4.06619 7.92048 4.14391 7.92048 4.33441V8.38376C7.92048 8.57426 8.05601 8.65245 8.2214 8.55673L10.6439 7.15782C10.6012 7.10901 10.5757 7.04882 10.5757 6.98248L10.5752 6.98343ZM11.7822 21.5696H11.8713C9.79849 14.1571 9.8582 14.1234 8.35977 8.83821L7.99962 9.04672C7.80391 9.15903 7.64326 9.06663 7.64326 8.84106V6.31999C7.2452 4.92819 6.93433 3.85105 6.84239 3.52881H5.21981L2.52246 6.02618L4.29337 7.55683L2.9537 9.00597L11.7822 21.5696ZM11.9343 9.77887C12.296 9.77887 12.5892 9.48566 12.5892 9.12397C12.5892 8.76227 12.296 8.46906 11.9343 8.46906C11.5726 8.46906 11.2794 8.76227 11.2794 9.12397C11.2794 9.48566 11.5726 9.77887 11.9343 9.77887ZM11.9343 13.6718C12.296 13.6718 12.5892 13.3786 12.5892 13.0169C12.5892 12.6552 12.296 12.362 11.9343 12.362C11.5726 12.362 11.2794 12.6552 11.2794 13.0169C11.2794 13.3786 11.5726 13.6718 11.9343 13.6718ZM11.9343 17.5657C12.296 17.5657 12.5892 17.2725 12.5892 16.9108C12.5892 16.5491 12.296 16.2559 11.9343 16.2559C11.5726 16.2559 11.2794 16.5491 11.2794 16.9108C11.2794 17.2725 11.5726 17.5657 11.9343 17.5657Z" fill="black"/>
</svg>
