<svg width="24" height="24" viewBox="0 0 24 24" fill="none" xmlns="http://www.w3.org/2000/svg">
<path d="M14.8914 15.7235L17.9001 8.27637H15.9055L13.8476 13.0889L12.3839 8.27637H10.8507L9.27946 13.0889L8.17127 10.8959L7.16846 13.9795L8.1866 15.7236H10.1496L11.5696 11.4078L12.9234 15.7236L14.8914 15.7235Z" fill="#FB8C00"/>
<path d="M3.97799 13.167H5.20341C5.57466 13.167 5.90519 13.1256 6.19507 13.0427L6.51205 12.0657L7.3978 9.33539C7.32975 9.22767 7.25239 9.12611 7.16661 9.03188C6.71196 8.52823 6.04649 8.27637 5.17042 8.27637H2.08936V15.7235H3.97799V13.167ZM5.60006 9.98964C5.77775 10.1685 5.86656 10.4079 5.86656 10.7078C5.86656 11.01 5.78836 11.2497 5.63219 11.4268C5.46092 11.6236 5.14557 11.722 4.68613 11.722H3.97799V9.72136H4.69139C5.11955 9.72136 5.42244 9.81078 5.60013 9.98964H5.60006ZM16.6781 14.3897L17.2506 12.9447H18.9035L18.1191 10.7528L19.1003 8.27637L21.9103 15.7235H19.8379L19.3578 14.3897H16.6781Z" fill="#616161"/>
</svg>
