<svg width="24" height="24" viewBox="0 0 24 24" fill="none" xmlns="http://www.w3.org/2000/svg">
<path d="M12 1.89697L20.9287 6.94759V17.0522L12 22.1028L3.07129 17.0522V6.94759L12 1.89697Z" fill="white"/>
<path d="M19.3356 16.7018L12.297 20.6877V17.5879L16.6839 15.1721L19.3356 16.7018ZM19.8174 16.2671V7.93815L17.2432 9.42402V14.7813L19.8174 16.2671ZM4.63855 16.7018L11.6771 20.6843V17.5845L7.29021 15.1721L4.63855 16.7018ZM4.15674 16.2671V7.93815L6.7309 9.42402V14.7813L4.15674 16.2671ZM4.45661 7.39906L11.6771 3.31543V6.31413L7.05099 8.85797L7.01393 8.87819L4.45661 7.39906ZM19.5141 7.39906L12.297 3.31543V6.31413L16.9198 8.86134L16.9568 8.88156L19.5141 7.39906Z" fill="#8ED6FB"/>
<path d="M11.6768 16.8801L7.35059 14.498V9.78429L11.6768 12.281V16.8801ZM12.2968 16.8801L16.623 14.5014V9.78429L12.2968 12.281V16.8801ZM7.64035 9.23846L11.9868 6.84961L16.3298 9.23846L11.9868 11.7452L7.64035 9.23846Z" fill="#1C78C0"/>
</svg>
